<?xml version="1.0" encoding="UTF-8" standalone="no"?><!DOCTYPE svg PUBLIC "-//W3C//DTD SVG 1.1//EN" "http://www.w3.org/Graphics/SVG/1.1/DTD/svg11.dtd"><svg xmlns="http://www.w3.org/2000/svg" xmlns:xlink="http://www.w3.org/1999/xlink" version="1.1" width="500" height="500" viewBox="0 0 500 500" xml:space="preserve"><desc>Created with Fabric.js 4.6.0</desc><defs></defs><g transform="matrix(1.81 0 0 1.81 250 226.83)" id="_0FKOUIGJPSCSKMyhCPML"><path style="stroke: rgb(0,0,0); stroke-width: 9.4107; stroke-dasharray: none; stroke-linecap: butt; stroke-dashoffset: 0; stroke-linejoin: miter; stroke-miterlimit: 4; fill: rgb(255,255,255); fill-rule: nonzero; opacity: 1;" vector-effect="non-scaling-stroke" transform=" translate(-106.62, -72.89)" d="M 0 32.13937 C 0 14.38928 14.38929 0 32.13937 0 L 181.09591999999998 0 C 198.84600999999998 0 213.23528999999996 14.38929 213.23528999999996 32.13937 L 213.23528999999996 145.77052 L -2.842170943040401e-14 145.77052 z" stroke-linecap="round" /></g><g transform="matrix(1 0 0 1 255.92 232.52)" style="" id="yH--rW0lRWpNvY-zgB63M"><text xml:space="preserve" font-family="Secular One" font-size="145" font-style="normal" font-weight="700" letter-spacing="0.29" line-height="1" style="stroke: none; stroke-width: 1; stroke-dasharray: none; stroke-linecap: butt; stroke-dashoffset: 0; stroke-linejoin: miter; stroke-miterlimit: 4; fill: rgb(0,0,0); fill-rule: nonzero; opacity: 1; white-space: pre;"><tspan x="-157" y="45.48">R</tspan><tspan x="-75.15" y="45.48">M</tspan><tspan x="57.6" y="45.48">C</tspan></text></g><g transform="matrix(7.3 0 0 0.74 250 374.33)" id="TXRYIo9o_HKcLejp6XnfF"><path style="stroke: rgb(250,133,244); stroke-width: 0; stroke-dasharray: none; stroke-linecap: butt; stroke-dashoffset: 0; stroke-linejoin: miter; stroke-miterlimit: 4; fill: rgb(0,0,0); fill-rule: nonzero; opacity: 1;" vector-effect="non-scaling-stroke" transform=" translate(0, 0)" d="M -30.56235 -30.56235 L 30.562340000000003 -30.56235 L 30.562340000000003 30.562340000000003 L -30.56235 30.562340000000003 z" stroke-linecap="round" /></g><g transform="matrix(1.41 0 0 1.4 26.78 374.33)" id="snFSAT5j2YdCdGQ0HGs7p"><path style="stroke: rgb(203,117,50); stroke-width: 0; stroke-dasharray: none; stroke-linecap: butt; stroke-dashoffset: 0; stroke-linejoin: miter; stroke-miterlimit: 4; fill: rgb(0,0,0); fill-rule: nonzero; opacity: 1;" vector-effect="non-scaling-stroke" transform=" translate(0, 0)" d="M 0 -16.26541 C 8.94132 -16.26541 16.19805 -8.97851 16.19805 0 C 16.19805 8.97851 8.941319999999997 16.26541 0 16.26541 C -8.94132 16.26541 -16.19805 8.97851 -16.19805 0 C -16.19805 -8.97851 -8.941319999999997 -16.26541 0 -16.26541 z" stroke-linecap="round" /></g><g transform="matrix(0.82 0 0 0.82 26.78 374.37)" id="cRiTdzIDb576hcBFzymg6"><path style="stroke: rgb(203,117,50); stroke-width: 0; stroke-dasharray: none; stroke-linecap: butt; stroke-dashoffset: 0; stroke-linejoin: miter; stroke-miterlimit: 4; fill: rgb(255,255,255); fill-rule: nonzero; opacity: 1;" vector-effect="non-scaling-stroke" transform=" translate(0, 0)" d="M 0 -16.26541 C 8.94132 -16.26541 16.19805 -8.97851 16.19805 0 C 16.19805 8.97851 8.941319999999997 16.26541 0 16.26541 C -8.94132 16.26541 -16.19805 8.97851 -16.19805 0 C -16.19805 -8.97851 -8.941319999999997 -16.26541 0 -16.26541 z" stroke-linecap="round" /></g><g transform="matrix(1.41 0 0 1.4 473.2 374.33)" id="mRulmxyqM1ASWMnVo-4nh"><path style="stroke: rgb(203,117,50); stroke-width: 0; stroke-dasharray: none; stroke-linecap: butt; stroke-dashoffset: 0; stroke-linejoin: miter; stroke-miterlimit: 4; fill: rgb(0,0,0); fill-rule: nonzero; opacity: 1;" vector-effect="non-scaling-stroke" transform=" translate(0, 0)" d="M 0 -16.26541 C 8.94132 -16.26541 16.19805 -8.97851 16.19805 0 C 16.19805 8.97851 8.941319999999997 16.26541 0 16.26541 C -8.94132 16.26541 -16.19805 8.97851 -16.19805 0 C -16.19805 -8.97851 -8.941319999999997 -16.26541 0 -16.26541 z" stroke-linecap="round" /></g><g transform="matrix(7.3 0 0 0.43 250 374.33)" id="v5Kq_vzR9b3MqUc9ssD-N"><path style="stroke: rgb(250,133,244); stroke-width: 0; stroke-dasharray: none; stroke-linecap: butt; stroke-dashoffset: 0; stroke-linejoin: miter; stroke-miterlimit: 4; fill: rgb(255,255,255); fill-rule: nonzero; opacity: 1;" vector-effect="non-scaling-stroke" transform=" translate(0, 0)" d="M -30.56235 -30.56235 L 30.562340000000003 -30.56235 L 30.562340000000003 30.562340000000003 L -30.56235 30.562340000000003 z" stroke-linecap="round" /></g><g transform="matrix(0.82 0 0 0.82 473.2 374.33)" id="CUuQeiEXa-hsMuRHbFgln"><path style="stroke: rgb(203,117,50); stroke-width: 0; stroke-dasharray: none; stroke-linecap: butt; stroke-dashoffset: 0; stroke-linejoin: miter; stroke-miterlimit: 4; fill: rgb(255,255,255); fill-rule: nonzero; opacity: 1;" vector-effect="non-scaling-stroke" transform=" translate(0, 0)" d="M 0 -16.26541 C 8.94132 -16.26541 16.19805 -8.97851 16.19805 0 C 16.19805 8.97851 8.941319999999997 16.26541 0 16.26541 C -8.94132 16.26541 -16.19805 8.97851 -16.19805 0 C -16.19805 -8.97851 -8.941319999999997 -16.26541 0 -16.26541 z" stroke-linecap="round" /></g></svg>